<svg width="1544" height="1223" viewBox="0 0 1544 1223" fill="none" xmlns="http://www.w3.org/2000/svg">
<g filter="url(#filter0_f_655_8)">
<path d="M1156.05 609.569C1158.83 774.373 988.559 949.125 800.115 1003.9C611.894 1057.98 404.82 991.867 293.919 843.866C183.018 695.865 167.607 465.757 267.802 334.582C368.22 202.726 584.008 168.215 779.934 229.181C976.766 289.687 1152.59 444.542 1156.05 609.569Z" fill="#4EFF7C" fill-opacity="0.33"/>
</g>
<g filter="url(#filter1_f_655_8)">
<path d="M1291.21 295.838C1339.81 319.999 1355.82 382.897 1333.38 432.434C1311.36 482.212 1249.99 519.237 1222.08 577.45C1193.74 635.422 1198.19 714.767 1166.69 740.668C1135.19 766.568 1068.16 739.265 1013.93 718.09C959.039 697.1 916.951 682.238 903.295 645.906C889.639 609.573 904.6 552.436 862.06 516.57C819.096 480.464 719.482 466.111 712.618 446.522C705.513 427.358 791.343 403.624 827.235 356.097C862.703 308.329 847.753 237.618 868.059 242.388C887.94 246.917 943.263 327.593 985.199 349.659C1026.47 371.909 1054.78 335.79 1108.99 310.413C1163.39 285.702 1243.27 271.493 1291.21 295.838Z" fill="#F1C21B" fill-opacity="0.62"/>
</g>
<defs>
<filter id="filter0_f_655_8" x="0.935852" y="0.0439453" width="1355.15" height="1222.57" filterUnits="userSpaceOnUse" color-interpolation-filters="sRGB">
<feFlood flood-opacity="0" result="BackgroundImageFix"/>
<feBlend mode="normal" in="SourceGraphic" in2="BackgroundImageFix" result="shape"/>
<feGaussianBlur stdDeviation="100" result="effect1_foregroundBlur_655_8"/>
</filter>
<filter id="filter1_f_655_8" x="512.202" y="42.1582" width="1031.15" height="909.066" filterUnits="userSpaceOnUse" color-interpolation-filters="sRGB">
<feFlood flood-opacity="0" result="BackgroundImageFix"/>
<feBlend mode="normal" in="SourceGraphic" in2="BackgroundImageFix" result="shape"/>
<feGaussianBlur stdDeviation="100" result="effect1_foregroundBlur_655_8"/>
</filter>
</defs>
</svg>
