<?xml version="1.0" encoding="utf-8"?>
<!-- Generator: Adobe Illustrator 24.3.0, SVG Export Plug-In . SVG Version: 6.00 Build 0)  -->
<svg version="1.1" id="Layer_1" xmlns="http://www.w3.org/2000/svg" xmlns:xlink="http://www.w3.org/1999/xlink" x="0px" y="0px"
	 viewBox="0 0 550.4 845" style="enable-background:new 0 0 550.4 845;" xml:space="preserve">
<style type="text/css">
	.st0{fill:#2C2E33;}
	.st1{fill:#51CF66;}
	.st2{fill:none;stroke:url(#SVGID_1_);stroke-width:40;stroke-miterlimit:10;}
</style>
<path class="st0" d="M245.6,744v52.5h52.5l155-155L400.5,589L245.6,744z M493.6,601c5.5-5.5,5.5-14.3,0-19.8c0,0,0,0,0,0l-32.7-32.7
	c-5.5-5.5-14.3-5.5-19.8,0c0,0,0,0,0,0l-25.6,25.6l52.5,52.5L493.6,601z"/>
<rect x="91.6" y="231.8" class="st1" width="372" height="39.8"/>
<rect x="91.6" y="339.8" class="st1" width="372" height="39.8"/>
<rect x="89.6" y="447.8" class="st1" width="243.9" height="39.8"/>
<rect x="89.6" y="555.8" class="st1" width="132.9" height="39.8"/>
<rect x="91.6" y="123.8" class="st1" width="175.9" height="39.8"/>
<rect x="287.6" y="123.8" class="st1" width="175.9" height="39.8"/>
<linearGradient id="SVGID_1_" gradientUnits="userSpaceOnUse" x1="0" y1="423.5" x2="550.37" y2="423.5" gradientTransform="matrix(1 0 0 -1 0 846)">
	<stop  offset="0" style="stop-color:#51CF66"/>
	<stop  offset="0.9858" style="stop-color:#FCC419;stop-opacity:0.4"/>
</linearGradient>
<path class="st2" d="M61.1,20h428.1c22.7,0,41.1,18.4,41.1,41.1v722.7c0,22.7-18.4,41.1-41.1,41.1H61.1C38.4,825,20,806.6,20,783.9
	V61.1C20,38.4,38.4,20,61.1,20z"/>
</svg>
