<?xml version="1.0" encoding="utf-8"?>
<!-- Generator: Adobe Illustrator 24.3.0, SVG Export Plug-In . SVG Version: 6.00 Build 0)  -->
<svg version="1.1" id="Layer_1" xmlns="http://www.w3.org/2000/svg" xmlns:xlink="http://www.w3.org/1999/xlink" x="0px" y="0px"
	 viewBox="0 0 550.4 845" style="enable-background:new 0 0 550.4 845;" xml:space="preserve">
<style type="text/css">
	.st0{fill:#51CF66;}
	.st1{fill:#2C2E33;}
	.st2{fill:none;stroke:url(#SVGID_1_);stroke-width:40;stroke-miterlimit:10;}
</style>
<rect x="86" y="691.1" class="st0" width="333.6" height="39.8"/>
<rect x="86" y="583.1" class="st0" width="382.6" height="39.8"/>
<path class="st1" d="M381.1,138.4l-93.9,54.2l92.8,53.6l93.9,54.2C471.9,234.3,437.1,173.6,381.1,138.4"/>
<path class="st1" d="M380,260v215.7c56.2-34.9,91.4-95.4,93.9-161.5L380,260"/>
<path class="st1" d="M368,374.1l-92.8,53.6l0,0l-94,54.3c58.3,31.2,128.3,31.4,186.8,0.6L368,374.1"/>
<path class="st1" d="M263.2,420.8l-92.8-53.6l-94-54.2c2.1,66.1,36.9,126.8,92.9,162L263.2,420.8"/>
<path class="st1" d="M170.4,353.4V137.7c-56.2,34.8-91.5,95.4-93.9,161.5L170.4,353.4"/>
<path class="st1" d="M275.2,107.9c-32.4,0-64.2,7.8-92.8,23v108.4l92.8-53.6l94-54.2C340.3,115.9,308,107.8,275.2,107.9"/>
<linearGradient id="SVGID_1_" gradientUnits="userSpaceOnUse" x1="606.1219" y1="92.568" x2="-55.7519" y2="754.432" gradientTransform="matrix(1 0 0 -1 0 846)">
	<stop  offset="0" style="stop-color:#51CF66"/>
	<stop  offset="0.9858" style="stop-color:#FCC419;stop-opacity:0.4"/>
</linearGradient>
<path class="st2" d="M61.1,20h428.1c22.7,0,41.1,18.4,41.1,41.1v722.7c0,22.7-18.4,41.1-41.1,41.1H61.1C38.4,825,20,806.6,20,783.9
	V61.1C20,38.4,38.4,20,61.1,20z"/>
</svg>
