<?xml version="1.0" encoding="utf-8"?>
<!-- Generator: Adobe Illustrator 24.3.0, SVG Export Plug-In . SVG Version: 6.00 Build 0)  -->
<svg version="1.1" id="Layer_1" xmlns="http://www.w3.org/2000/svg" xmlns:xlink="http://www.w3.org/1999/xlink" x="0px" y="0px"
	 viewBox="0 0 550.4 845" style="enable-background:new 0 0 550.4 845;" xml:space="preserve">
<style type="text/css">
	.st0{fill:#2C2E33;}
	.st1{fill:#51CF66;}
	.st2{fill:none;stroke:url(#SVGID_1_);stroke-width:40;stroke-miterlimit:10;}
	.st3{fill:#51CF66;stroke:#65BEEB;stroke-width:0.75;stroke-miterlimit:10;}
	.st4{clip-path:url(#SVGID_3_);}
	.st5{fill:#010101;}
	.st6{clip-path:url(#SVGID_5_);}
	.st7{clip-path:url(#SVGID_7_);}
	.st8{fill:none;}
</style>
<path class="st0" d="M188.2,142.5c0,1,0,1.9-0.1,2.9s-0.1,1.9-0.2,2.9s-0.2,1.9-0.4,2.9s-0.3,1.9-0.5,2.9s-0.4,1.9-0.6,2.8
	s-0.5,1.9-0.8,2.8s-0.6,1.8-0.9,2.8s-0.7,1.8-1,2.7s-0.8,1.8-1.2,2.6s-0.9,1.7-1.3,2.6s-0.9,1.7-1.4,2.5s-1,1.6-1.6,2.4
	s-1.1,1.6-1.7,2.4s-1.2,1.5-1.8,2.3s-1.2,1.5-1.9,2.2s-1.3,1.4-2,2.1s-1.4,1.4-2.1,2s-1.4,1.3-2.2,1.9s-1.5,1.2-2.3,1.8
	s-1.6,1.1-2.4,1.7s-1.6,1.1-2.4,1.6s-1.7,1-2.5,1.4s-1.7,0.9-2.6,1.3s-1.8,0.8-2.6,1.2s-1.8,0.7-2.7,1s-1.8,0.6-2.8,0.9
	s-1.9,0.5-2.8,0.8s-1.9,0.4-2.8,0.6s-1.9,0.4-2.9,0.5s-1.9,0.3-2.9,0.4s-1.9,0.2-2.9,0.2s-1.9,0.1-2.9,0.1s-1.9,0-2.9-0.1
	s-1.9-0.1-2.9-0.2s-1.9-0.2-2.9-0.4s-1.9-0.3-2.9-0.5s-1.9-0.4-2.8-0.6s-1.9-0.5-2.8-0.8s-1.8-0.6-2.7-0.9s-1.8-0.7-2.7-1
	s-1.8-0.8-2.7-1.2c-0.9-0.4-1.7-0.8-2.6-1.3c-0.8-0.5-1.7-0.9-2.5-1.4c-0.8-0.5-1.6-1-2.4-1.6s-1.6-1.1-2.4-1.7
	c-0.8-0.6-1.5-1.2-2.3-1.8s-1.5-1.2-2.2-1.9s-1.4-1.3-2.1-2s-1.3-1.4-2-2.1c-0.6-0.7-1.3-1.4-1.9-2.2s-1.2-1.5-1.8-2.3
	c-0.6-0.8-1.1-1.6-1.7-2.4c-0.5-0.8-1-1.6-1.6-2.4s-1-1.7-1.4-2.5s-0.9-1.7-1.3-2.6s-0.8-1.8-1.2-2.6s-0.7-1.8-1-2.7
	s-0.6-1.8-0.9-2.8c-0.3-0.9-0.5-1.9-0.8-2.8s-0.4-1.9-0.6-2.8s-0.4-1.9-0.5-2.9s-0.3-1.9-0.4-2.9c-0.1-1-0.2-1.9-0.2-2.9
	c-0.1-1-0.1-1.9-0.1-2.9s0-1.9,0.1-2.9c0.1-1,0.1-1.9,0.2-2.9s0.2-1.9,0.4-2.9s0.3-1.9,0.5-2.9c0.2-0.9,0.4-1.9,0.6-2.8
	c0.2-0.9,0.5-1.9,0.8-2.8s0.6-1.8,0.9-2.8s0.7-1.8,1-2.7s0.8-1.8,1.2-2.6c0.4-0.9,0.8-1.7,1.3-2.6s0.9-1.7,1.4-2.5
	c0.5-0.8,1-1.6,1.6-2.4s1.1-1.6,1.7-2.4s1.2-1.5,1.8-2.3s1.2-1.5,1.9-2.2c0.7-0.7,1.3-1.4,2-2.1s1.4-1.3,2.1-2
	c0.7-0.7,1.4-1.3,2.2-1.9s1.5-1.2,2.3-1.8c0.8-0.6,1.5-1.1,2.3-1.6c0.8-0.5,1.6-1,2.4-1.6c0.8-0.6,1.7-1,2.5-1.4
	c0.9-0.4,1.7-0.9,2.6-1.3c0.9-0.4,1.8-0.8,2.7-1.2s1.8-0.7,2.7-1s1.8-0.6,2.7-0.9s1.9-0.5,2.8-0.8s1.9-0.4,2.8-0.6s1.9-0.3,2.9-0.5
	s1.9-0.3,2.9-0.3s1.9-0.2,2.9-0.2s1.9-0.1,2.9-0.1s1.9,0,2.9,0.1s1.9,0.1,2.9,0.2s1.9,0.2,2.9,0.3s1.9,0.3,2.9,0.5s1.9,0.4,2.8,0.6
	s1.9,0.5,2.8,0.8s1.8,0.6,2.8,0.9s1.8,0.7,2.7,1s1.8,0.8,2.6,1.2s1.7,0.8,2.6,1.3s1.7,0.9,2.5,1.4s1.6,1,2.4,1.6s1.6,1.1,2.4,1.7
	s1.5,1.2,2.3,1.8s1.5,1.2,2.2,1.9s1.4,1.3,2.1,2s1.4,1.4,2,2.1s1.3,1.4,1.9,2.2s1.2,1.5,1.8,2.3s1.1,1.6,1.7,2.4s1,1.6,1.6,2.4
	s1,1.7,1.4,2.5s0.9,1.7,1.3,2.6s0.8,1.8,1.2,2.6s0.7,1.8,1,2.7s0.6,1.8,0.9,2.8s0.5,1.8,0.8,2.8c0.2,0.9,0.4,1.9,0.6,2.8
	s0.4,1.9,0.5,2.9s0.3,1.9,0.4,2.9s0.2,1.9,0.2,2.9S188.2,141.6,188.2,142.5z"/>
<rect x="415.1" y="571.2" class="st1" width="43.5" height="43.5"/>
<rect x="327.9" y="571.2" class="st1" width="43.5" height="43.5"/>
<path class="st0" d="M269.5,488.7l18.4-13.8l-32.8-43.8l43.1-57.5H148.7v138.1l0,0l69-92.1C217.7,419.6,250.1,462.8,269.5,488.7z"/>
<path class="st0" d="M71.1,337.6v210.8h404.4V337.6H71.1z M401.8,511.8h-253V373.6h253V511.8z"/>
<polygon class="st0" points="401.8,511.7 401.8,511.7 401.8,373.5 298.2,373.5 "/>
<linearGradient id="SVGID_1_" gradientUnits="userSpaceOnUse" x1="606.1219" y1="92.568" x2="-55.7519" y2="754.432" gradientTransform="matrix(1 0 0 -1 0 846)">
	<stop  offset="0" style="stop-color:#51CF66"/>
	<stop  offset="0.9858" style="stop-color:#FCC419;stop-opacity:0.4"/>
</linearGradient>
<path class="st2" d="M61.1,20h428.1c22.7,0,41.1,18.4,41.1,41.1v722.7c0,22.7-18.4,41.1-41.1,41.1H61.1C38.4,825,20,806.6,20,783.9
	V61.1C20,38.4,38.4,20,61.1,20z"/>
<rect x="71.4" y="244.9" class="st1" width="361.4" height="38.1"/>
<rect x="70.4" y="573.9" class="st1" width="174.5" height="38.2"/>
<rect x="215.2" y="104.1" class="st3" width="224.5" height="38.2"/>
<path class="st1" d="M308.8,733.2c0,0.5,0,1,0,1.5s-0.1,1-0.1,1.5s-0.1,1-0.2,1.5s-0.2,1-0.3,1.5s-0.2,1-0.3,1.5s-0.3,1-0.4,1.5
	s-0.3,1-0.5,1.5s-0.4,1-0.6,1.5s-0.4,1-0.6,1.4s-0.5,0.9-0.7,1.4s-0.5,0.9-0.8,1.4s-0.5,0.9-0.8,1.3s-0.6,0.8-0.9,1.3
	s-0.6,0.8-1,1.2s-0.7,0.8-1,1.2s-0.7,0.8-1.1,1.1s-0.7,0.7-1.1,1.1s-0.8,0.7-1.2,1s-0.8,0.7-1.2,1s-0.8,0.6-1.3,0.9
	s-0.9,0.6-1.3,0.8s-0.9,0.5-1.4,0.8s-0.9,0.5-1.4,0.7s-1,0.4-1.4,0.6s-1,0.4-1.5,0.6s-1,0.3-1.5,0.5s-1,0.3-1.5,0.4s-1,0.2-1.5,0.3
	s-1,0.2-1.5,0.3s-1,0.1-1.5,0.2s-1,0.1-1.5,0.1s-1,0-1.5,0s-1,0-1.6,0s-1-0.1-1.5-0.1s-1-0.1-1.5-0.2s-1-0.2-1.5-0.3s-1-0.2-1.5-0.3
	s-1-0.3-1.5-0.4s-1-0.3-1.5-0.5s-1-0.4-1.5-0.6s-1-0.4-1.4-0.6s-0.9-0.5-1.4-0.7s-0.9-0.5-1.4-0.8s-0.9-0.5-1.3-0.8
	s-0.9-0.6-1.3-0.9s-0.8-0.6-1.2-1s-0.8-0.7-1.2-1c-0.4-0.3-0.8-0.7-1.1-1.1s-0.7-0.7-1.1-1.1s-0.7-0.8-1-1.2s-0.6-0.8-1-1.2
	s-0.6-0.8-0.9-1.3s-0.6-0.9-0.8-1.3s-0.5-0.9-0.8-1.4s-0.5-0.9-0.7-1.4s-0.4-0.9-0.6-1.4s-0.4-1-0.6-1.5s-0.3-1-0.5-1.5
	s-0.3-1-0.4-1.5s-0.2-1-0.3-1.5s-0.2-1-0.3-1.5s-0.1-1-0.2-1.5s-0.1-1-0.1-1.5s0-1,0-1.5s0-1,0-1.6s0.1-1,0.1-1.5s0.1-1,0.2-1.5
	s0.2-1,0.3-1.5s0.2-1,0.3-1.5s0.3-1,0.4-1.5s0.3-1,0.5-1.5s0.4-1,0.6-1.5s0.4-1,0.6-1.4s0.5-0.9,0.7-1.4s0.5-0.9,0.8-1.3
	s0.5-0.9,0.8-1.3s0.6-0.8,0.9-1.3s0.6-0.8,1-1.2s0.7-0.8,1-1.2s0.7-0.8,1.1-1.1s0.8-0.7,1.1-1.1c0.4-0.4,0.8-0.7,1.2-1
	s0.8-0.7,1.2-1s0.8-0.6,1.3-0.9s0.9-0.6,1.3-0.8s0.9-0.5,1.4-0.8s0.9-0.5,1.4-0.7s0.9-0.4,1.4-0.6s1-0.4,1.5-0.6s1-0.3,1.5-0.5
	s1-0.3,1.5-0.4s1-0.2,1.5-0.3s1-0.2,1.5-0.3s1-0.1,1.5-0.2s1-0.1,1.5-0.1s1,0,1.6,0s1,0,1.5,0s1,0.1,1.5,0.1s1,0.1,1.5,0.2
	s1,0.2,1.5,0.3s1,0.2,1.5,0.3s1,0.3,1.5,0.4s1,0.3,1.5,0.5s1,0.4,1.5,0.6s1,0.4,1.4,0.6s0.9,0.5,1.4,0.7s0.9,0.5,1.4,0.8
	s0.9,0.5,1.3,0.8s0.9,0.6,1.3,0.9s0.8,0.6,1.2,1s0.8,0.7,1.2,1s0.8,0.7,1.1,1.1s0.7,0.7,1.1,1.1s0.7,0.8,1,1.2s0.6,0.8,1,1.2
	s0.6,0.8,0.9,1.3s0.6,0.9,0.8,1.3s0.5,0.9,0.8,1.3s0.5,0.9,0.7,1.4s0.4,0.9,0.6,1.4s0.4,1,0.6,1.5s0.3,1,0.5,1.5s0.3,1,0.4,1.5
	s0.2,1,0.3,1.5s0.2,1,0.3,1.5s0.1,1,0.2,1.5s0.1,1,0.1,1.5S308.8,732.7,308.8,733.2z"/>
<rect x="130.1" y="701.6" class="st1" width="63.4" height="63.4"/>
<g>
	<defs>
		<rect id="SVGID_2_" x="364.6" y="700.3" width="55.6" height="64.3"/>
	</defs>
	<clipPath id="SVGID_3_">
		<use xlink:href="#SVGID_2_"  style="overflow:visible;"/>
	</clipPath>
	<g class="st4">
		<path class="st5" d="M420.2,764.6l-55.7-32.1l55.6-32.1L420.2,764.6z"/>
	</g>
</g>
<g>
	<defs>
		<rect id="SVGID_4_" x="364.6" y="700.3" width="55.6" height="64.3"/>
	</defs>
	<clipPath id="SVGID_5_">
		<use xlink:href="#SVGID_4_"  style="overflow:visible;"/>
	</clipPath>
	<g class="st6">
		<path class="st1" d="M420.2,764.6l-55.7-32.1l55.6-32.1L420.2,764.6z"/>
	</g>
</g>
<g>
	<defs>
		<rect id="SVGID_6_" x="364.6" y="700.3" width="55.6" height="64.3"/>
	</defs>
	<clipPath id="SVGID_7_">
		<use xlink:href="#SVGID_6_"  style="overflow:visible;"/>
	</clipPath>
	<g class="st7">
		<path class="st8" d="M420.2,764.6l-55.7-32.1l55.6-32.1L420.2,764.6z"/>
	</g>
</g>
</svg>
